<?xml version="1.0" encoding="utf-8"?>
<!-- Generator: Adobe Illustrator 18.0.0, SVG Export Plug-In . SVG Version: 6.00 Build 0)  -->
<!DOCTYPE svg PUBLIC "-//W3C//DTD SVG 1.1//EN" "http://www.w3.org/Graphics/SVG/1.1/DTD/svg11.dtd">
<svg version="1.1" id="Layer_1" xmlns="http://www.w3.org/2000/svg" xmlns:xlink="http://www.w3.org/1999/xlink" x="0px" y="0px"
	 viewBox="-9.5 0.5 159 183" enable-background="new -9.5 0.5 159 183" xml:space="preserve">
<polygon fill="#E7E247" points="145.7,135.8 69.8,179.7 -6.1,135.8 -6.1,48.1 69.8,4.3 145.7,48.1 "/>
<path fill="#34435E" d="M51.2,144.6c-0.2-0.2-0.1-0.5,0.2-0.7c0.2-0.2,0.5-0.1,0.7,0.2l0.8,1.3l0.6-2.6c0-0.2,0.1-0.3,0.2-0.4
	c0.2-0.2,0.5-0.1,0.7,0.1c0.1,0.1,0.1,0.3,0,0.4l-0.5,1.7l2.1,0.7c0.1,0,0.2,0.1,0.3,0.2c0.2,0.2,0.1,0.5-0.2,0.7
	c-0.2,0.1-0.3,0.1-0.5,0l-2-0.7l-0.2,0.8l0.5,0.8c0.2,0.2,0.1,0.5-0.2,0.7c-0.2,0.2-0.5,0.1-0.7-0.2L51.2,144.6z"/>
<path fill="#34435E" d="M86.9,143.7c0.2-0.2,0.5-0.3,0.7-0.1l1.3,0.9c0.5,0.4,0.7,0.7,0.8,1.2c0,0.4,0,0.7-0.3,1.1l0,0
	c-0.5,0.6-1,0.7-1.6,0.6l0,1.1c0,0.2,0,0.3-0.1,0.4c-0.2,0.2-0.5,0.2-0.7,0.1c-0.2-0.1-0.2-0.3-0.2-0.5l0-1.6l-0.7-0.5l-0.6,0.8
	c-0.2,0.2-0.5,0.3-0.7,0.1c-0.2-0.2-0.3-0.5-0.1-0.7L86.9,143.7z M87.5,146.3c0.4,0.3,0.8,0.2,1,0l0,0c0.2-0.3,0.2-0.7-0.2-1
	l-0.8-0.6l-0.8,1.1L87.5,146.3z"/>
<circle fill="none" cx="70.5" cy="92.6" r="0.2"/>
<g>
	<path fill="#34435E" d="M69.9,94.8c1.2,0,2.2-1,2.2-2.2c0-1.2-1-2.2-2.2-2.2c-1.2,0-2.2,1-2.2,2.2C67.7,93.8,68.7,94.8,69.9,94.8z
		 M69.9,92.4c0.1,0,0.2,0.1,0.2,0.2c0,0.1-0.1,0.2-0.2,0.2s-0.2-0.1-0.2-0.2C69.7,92.6,69.7,92.4,69.9,92.4z"/>
	<path fill="#34435E" d="M109.4,62c0-0.5-0.5-1-1-1H31.2c-0.5,0-1,0.5-1,1c0,0.5,0.5,1,1,1h77.2C108.9,62.9,109.4,62.5,109.4,62z"/>
	<path fill="#34435E" d="M101.3,33.7L70.2,15.7l0,0c0,0-0.1,0-0.1,0l0,0l0,0h0h0c0,0-0.1,0-0.1,0c0,0,0,0,0,0h0c0,0-0.1,0-0.2,0l0,0
		l0,0l0,0c0,0-0.1,0-0.1,0l0,0L39,33.4c-0.4,0.2-0.5,0.7-0.3,1c0.2,0.4,0.7,0.5,1,0.3L66.9,19L55.3,33.8c-0.2,0.3-0.2,0.8,0.1,1.1
		c0.3,0.2,0.8,0.2,1.1-0.1l12.6-16.1v15.7c0,0.4,0.3,0.8,0.8,0.8s0.8-0.3,0.8-0.8V18.6l12.6,16.1c0.2,0.2,0.4,0.3,0.6,0.3
		c0.2,0,0.3,0,0.5-0.2c0.3-0.2,0.4-0.7,0.1-1.1L72.9,19l27.7,16c0.1,0.1,0.2,0.1,0.4,0.1c0.2,0,0.5-0.1,0.7-0.4
		C101.8,34.4,101.7,33.9,101.3,33.7z"/>
	<path fill="#34435E" d="M101.1,149.5c-0.2-0.4-0.7-0.5-1-0.3l-27.1,15.7l11.5-14.7c0.2-0.3,0.2-0.8-0.1-1.1s-0.8-0.2-1.1,0.1
		l-12.6,16.1v-15.7c0-0.4-0.3-0.8-0.8-0.8s-0.8,0.3-0.8,0.8v15.7l-12.6-16.1c-0.2-0.3-0.7-0.4-1.1-0.1c-0.3,0.2-0.4,0.7-0.1,1.1
		l11.5,14.7l-27.7-16c-0.4-0.2-0.8-0.1-1,0.3c-0.2,0.4-0.1,0.8,0.3,1l31.1,17.9c0,0,0,0,0,0s0,0,0.1,0c0,0,0,0,0,0c0,0,0,0,0,0h0
		c0,0,0.1,0,0.2,0l0,0l0,0l0,0l0,0c0.1,0,0.1,0,0.2,0h0h0c0,0,0,0,0.1,0c0,0,0,0,0,0l30.6-17.6C101.2,150.3,101.3,149.8,101.1,149.5
		z"/>
	<circle fill="#34435E" cx="103.1" cy="148.1" r="0.9"/>
	<circle fill="#34435E" cx="36.2" cy="148.1" r="0.9"/>
	<path fill="#34435E" d="M147.2,46l-76-43.8c-0.9-0.5-1.9-0.5-2.8,0L-7.5,46c-0.9,0.5-1.4,1.4-1.4,2.4v87.7c0,1,0.5,1.9,1.4,2.4
		l76,43.8c0.5,0.2,0.9,0.4,1.4,0.4s1-0.1,1.4-0.4l76-43.8c0.9-0.5,1.4-1.4,1.4-2.4V48.4C148.6,47.5,148.1,46.6,147.2,46z M69.9,7.9
		L143,50.1v12.4h-9c-0.5,0-1,0.5-1,1v2.9H122V43.8c0-0.5-0.5-1-1-1H17.5c-0.5,0-1,0.5-1,1v22.6H5.4v-2.9c0-0.5-0.5-1-1-1h-7.8V50.1
		L69.9,7.9z M135.5,113.3h6.6v4.8h-6.6V113.3z M135.5,111.4v-4.8h6.6v4.8H135.5z M143,89.3l-0.1-0.2h0.1V89.3z M141.8,87.2l-1.1-1.8
		h2.3v1.8H141.8z M140.8,83.4l1.2-2.2h1.1v2.2H140.8z M143,75.6l-4.8,8.3v0c0,0,0,0.1-0.1,0.2v0c0,0.1,0,0.2,0,0.2s0,0.2,0,0.2v0
		c0,0,0,0.1,0.1,0.2v0l4.8,8.3v11.4h-8.5c-0.5,0-1,0.5-1,1v6.8v6.8c0,0.5,0.5,1,1,1h8.5v9.5h-12.4V72.1h3.5h9L143,75.6L143,75.6z
		 M-2.4,81.3l1.2,2.2h-2.2v-2.2H-2.4z M-1.1,85.4l-1.1,1.8h-1.1v-1.8H-1.1z M-3.3,89.1L-3.3,89.1L-3.3,89.1L-3.3,89.1z M3.2,111.4
		h-5.6v-4.8h5.6V111.4z M3.2,113.3v4.8h-5.6v-4.8H3.2z M-3.3,120.1h7.4c0.5,0,1-0.5,1-1v-6.8v-6.8c0-0.5-0.5-1-1-1h-7.4V93l4.7-8.1
		v0c0,0,0-0.1,0.1-0.2v0c0-0.1,0-0.2,0-0.2s0-0.2,0-0.2v0c0,0,0-0.1-0.1-0.2v0l-4.7-8.1v-3.6h7.8H8v57.4H-3.3V120.1z M3.6,67.3v2.9
		h-6.8v-5.8h6.8V67.3z M9,70.2H5.5v-1.9h11.1v59v2.3H9.9V71.2C9.9,70.6,9.5,70.2,9,70.2z M120.1,67.3v59h-1.3v-5c0-0.5-0.5-1-1-1
		h-2.3v-5c0-0.5-0.5-1-1-1h-2.3v-5c0-0.5-0.5-1-1-1h-1.9V72.1h1.9c0.5,0,1-0.5,1-1v-2.9h2.3c0.5,0,1-0.5,1-1V56.6c0-0.5-0.5-1-1-1
		H25.6c-0.5,0-1,0.5-1,1v10.6c0,0.5,0.5,1,1,1h2.3v2.9c0,0.5,0.5,1,1,1h1.9v36.3h-1.9c-0.5,0-1,0.5-1,1v5h-2.3c-0.5,0-1,0.5-1,1v5
		h-3.8c-0.5,0-1,0.5-1,1v5h-1.4v-59V44.7h101.6L120.1,67.3L120.1,67.3z M31.7,70.2h-1.9v-1.9H43v1.9h-1.9c-0.5,0-1,0.5-1,1v37.2
		h-7.4V71.2C32.7,70.6,32.3,70.2,31.7,70.2z M26.6,66.3v-8.7h87.1v8.7h-2.3H96.6H44H28.9H26.6z M107.5,71.2v37.2h-7.1V71.2
		c0-0.5-0.5-1-1-1h-1.9v-1.9h12.9v1.9h-1.9C108,70.2,107.5,70.6,107.5,71.2z M79.2,99.5h6l-5,8.6h-1L79.2,99.5L79.2,99.5z
		 M86.4,97.6h-7.1v-5.7h10.4L86.4,97.6z M79.2,89.9v-6.3H86l3.7,6.3H79.2z M79.2,81.6v-8h1l4.6,8H79.2z M77.3,90.9v17.2H63.1v-9.6
		v-7.7v-8.3v-8.9h14.2V90.9z M61.2,81.6h-5.4l4.6-8h0.9V81.6z M54.6,83.6h6.6v6.3H51L54.6,83.6z M61.2,91.9v5.7h-7l-3.3-5.7H61.2z
		 M61.2,99.5v8.6h-0.9l-5-8.6H61.2z M92.2,91.4C92.2,91.4,92.2,91.4,92.2,91.4c0-0.1,0.1-0.1,0.1-0.2v0c0-0.1,0-0.2,0-0.2
		c0-0.1,0-0.2,0-0.2v0c0,0,0-0.1-0.1-0.2v0L81.7,72.2c-0.2-0.3-0.5-0.5-0.8-0.5h-2.5H62.2h-2.4c-0.3,0-0.7,0.2-0.8,0.5L48.5,90.4v0
		c0,0,0,0.1-0.1,0.2v0c0,0.1,0,0.2,0,0.2c0,0.1,0,0.2,0,0.2v0c0,0,0,0.1,0.1,0.2v0l9.8,17H42V72.1H44c0.5,0,1-0.5,1-1v-2.9h50.6v2.9
		c0,0.5,0.5,1,1,1h1.9v36.3H82.3L92.2,91.4z M108.5,110.4h1.9v4.1H29.8v-4.1h1.9H108.5z M111.4,116.3h2.3v4.1H26.6v-4.1h2.3H111.4z
		 M114.6,122.3h2.3v4.1h-95v-4.1h3.8H114.6z M18.5,130.5v-2.3h2.4h97h2.3v2.3v1.8H18.5V130.5z M122,127.3v-59h11.1v1.9h-3.5
		c-0.5,0-1,0.5-1,1v58.4H122L122,127.3L122,127.3z M135.1,70.2v-2.9v-2.9h8v5.8L135.1,70.2L135.1,70.2z M69.9,176.8l-73.2-42.2v-3.1
		H8.9l0,0h7.6v1.8c0,0.5,0.5,1,1,1h103.5c0.5,0,1-0.5,1-1v-1.8h7.6l0,0H143v3.1L69.9,176.8z"/>
	<path fill="#34435E" d="M42.5,53c0.3,0,0.6-0.2,0.6-0.6v-2.9l2.4,3.1c0.2,0.2,0.3,0.4,0.6,0.4h0c0.3,0,0.6-0.2,0.6-0.6v-4.3
		c0-0.3-0.2-0.6-0.6-0.6c-0.3,0-0.6,0.2-0.6,0.6v2.8l-2.3-3c-0.2-0.2-0.3-0.4-0.6-0.4h-0.1c-0.3,0-0.6,0.2-0.6,0.6v4.3
		C41.9,52.8,42.2,53,42.5,53z"/>
	<path fill="#34435E" d="M50.6,53.1c1.7,0,2.9-1.3,2.9-2.8l0,0c0-1.6-1.2-2.8-2.9-2.8s-2.9,1.3-2.9,2.8l0,0
		C47.8,51.8,49,53.1,50.6,53.1z M49,50.3c0-0.9,0.7-1.7,1.6-1.7c0.9,0,1.6,0.8,1.6,1.7l0,0c0,0.9-0.7,1.7-1.6,1.7
		C49.7,52,49,51.2,49,50.3L49,50.3z"/>
	<path fill="#34435E" d="M55.2,53h1.5c1.7,0,2.9-1.2,2.9-2.7l0,0c0-1.5-1.2-2.7-2.9-2.7h-1.5c-0.3,0-0.6,0.2-0.6,0.6v4.2
		C54.6,52.7,54.8,53,55.2,53z M55.8,48.7h0.9c1,0,1.6,0.7,1.6,1.6l0,0c0,0.9-0.7,1.6-1.6,1.6h-0.9V48.7z"/>
	<path fill="#34435E" d="M61.2,53h3c0.3,0,0.5-0.2,0.5-0.5c0-0.3-0.2-0.5-0.5-0.5h-2.5v-1.1h2c0.3,0,0.5-0.2,0.5-0.5
		c0-0.3-0.2-0.5-0.5-0.5h-2v-1.1h2.4c0.3,0,0.5-0.2,0.5-0.5s-0.2-0.5-0.5-0.5h-3c-0.3,0-0.6,0.2-0.6,0.6v4.2
		C60.7,52.7,60.9,53,61.2,53z"/>
	<path fill="#34435E" d="M65.7,52.4c0.6,0.5,1.3,0.7,2,0.7c1.2,0,2-0.6,2-1.7l0,0c0-0.9-0.6-1.4-1.7-1.6c-0.9-0.2-1.2-0.4-1.2-0.7
		l0,0c0-0.2,0.2-0.5,0.7-0.5c0.4,0,0.7,0.1,1.1,0.4c0.1,0,0.2,0.1,0.3,0.1c0.3,0,0.6-0.2,0.6-0.5c0-0.2-0.1-0.4-0.2-0.5
		c-0.5-0.3-1.1-0.5-1.7-0.5c-1.1,0-1.9,0.7-1.9,1.6l0,0c0,1.1,0.7,1.4,1.8,1.6c0.9,0.2,1.1,0.4,1.1,0.7l0,0c0,0.3-0.3,0.5-0.8,0.5
		c-0.5,0-1-0.2-1.4-0.5c-0.1,0-0.2-0.1-0.3-0.1c-0.3,0-0.6,0.2-0.6,0.5C65.5,52.2,65.6,52.3,65.7,52.4z"/>
	<path fill="#34435E" d="M73.3,53.1c0.9,0,1.4-0.2,1.9-0.7c0.1-0.1,0.2-0.2,0.2-0.4c0-0.3-0.2-0.5-0.6-0.5c-0.1,0-0.2,0-0.4,0.1
		c-0.3,0.3-0.7,0.4-1.2,0.4c-0.9,0-1.6-0.8-1.6-1.7l0,0c0-0.9,0.7-1.7,1.6-1.7c0.4,0,0.8,0.1,1.1,0.4c0.1,0,0.2,0.1,0.4,0.1
		c0.3,0,0.6-0.2,0.6-0.6c0-0.2-0.1-0.4-0.2-0.5c-0.5-0.3-1-0.5-1.8-0.5c-1.7,0-2.8,1.3-2.8,2.8l0,0C70.6,51.8,71.7,53.1,73.3,53.1z"
		/>
	<path fill="#34435E" d="M77.1,53c0.3,0,0.6-0.2,0.6-0.6v-1.6h2.2v1.6c0,0.3,0.2,0.6,0.6,0.6c0.3,0,0.6-0.2,0.6-0.6v-4.3
		c0-0.3-0.2-0.6-0.6-0.6c-0.3,0-0.6,0.2-0.6,0.6v1.6h-2.2v-1.6c0-0.3-0.2-0.6-0.6-0.6c-0.3,0-0.6,0.2-0.6,0.6v4.3
		C76.5,52.8,76.7,53,77.1,53z"/>
	<path fill="#34435E" d="M85,53.1c1.7,0,2.9-1.3,2.9-2.8l0,0c0-1.6-1.2-2.8-2.9-2.8c-1.7,0-2.9,1.3-2.9,2.8l0,0
		C82.1,51.8,83.3,53.1,85,53.1z M83.4,50.3c0-0.9,0.7-1.7,1.6-1.7c0.9,0,1.6,0.8,1.6,1.7l0,0c0,0.9-0.7,1.7-1.6,1.7
		C84.1,52,83.4,51.2,83.4,50.3L83.4,50.3z"/>
	<path fill="#34435E" d="M91.6,53.1c1.7,0,2.9-1.3,2.9-2.8l0,0c0-1.6-1.2-2.8-2.9-2.8c-1.7,0-2.9,1.3-2.9,2.8l0,0
		C88.7,51.8,89.9,53.1,91.6,53.1z M90,50.3c0-0.9,0.7-1.7,1.6-1.7c0.9,0,1.6,0.8,1.6,1.7l0,0c0,0.9-0.7,1.7-1.6,1.7
		C90.7,52,90,51.2,90,50.3L90,50.3z"/>
	<path fill="#34435E" d="M96.1,53h2.8c0.3,0,0.5-0.2,0.5-0.5c0-0.3-0.2-0.5-0.5-0.5h-2.2v-3.8c0-0.3-0.2-0.6-0.6-0.6
		c-0.3,0-0.6,0.2-0.6,0.6v4.3C95.5,52.7,95.8,53,96.1,53z"/>
</g>
<path fill="#34435E" d="M69.3,140.1c0-0.3,0.2-0.5,0.5-0.5s0.5,0.2,0.5,0.5v3.6c0,0.3-0.2,0.5-0.5,0.5s-0.5-0.2-0.5-0.5V140.1z"/>
</svg>
